<svg width="29" height="32" viewBox="0 0 29 32" fill="none" xmlns="http://www.w3.org/2000/svg">
<path d="M28.6341 8.50928C28.6341 8.14698 28.4399 7.81247 28.1254 7.63272L15.0009 0.133019C14.6905 -0.0443393 14.3095 -0.0443396 13.9991 0.133018L4.4086 5.61332L7.05061 7.12304L14.2496 3.00934C14.4048 2.92066 14.5953 2.92066 14.7505 3.00934L24.7185 8.70537L18.4532 12.2855L18.4327 7.72838L15.7839 6.21476L15.8245 15.2492L23.704 19.7982V16.7709L19.8159 14.5263L25.9921 10.9971V11.0158L28.6341 9.50609V8.50928Z" fill="black"/>
<path d="M28.6341 12.5255L25.9921 14.0352V22.2739C25.9921 22.4551 25.895 22.6223 25.7377 22.7122L15.8211 28.3789V21.3909L19.6672 23.5661L22.3161 22.0525L14.5002 17.6321L6.68408 22.0526L9.33293 23.5662L13.1791 21.391V31.3984L13.9991 31.867C14.3095 32.0443 14.6905 32.0443 15.0009 31.867L28.1254 24.3673C28.4399 24.1875 28.6341 23.853 28.6341 23.4907V12.5255Z" fill="black"/>
<path d="M10.537 26.8692V29.8886L0.874652 24.3673C0.560094 24.1875 0.365967 23.853 0.365967 23.4907V8.50928C0.365967 8.14698 0.560094 7.81247 0.874653 7.63272L1.7666 7.12304L4.4086 8.63276L4.39471 8.6407L10.5098 12.135L10.5295 7.74998L13.1783 6.23635L13.1378 15.2492L5.29599 19.7764V16.7492L9.27774 14.4504L3.00797 10.8677V22.2739C3.00797 22.4551 3.10504 22.6223 3.26232 22.7122L10.537 26.8692Z" fill="black"/>
</svg>
